<svg xmlns="http://www.w3.org/2000/svg" viewBox="0 0 1800 1800" width="1800" height="1800"><g transform="translate(79.0 980.0) rotate(0.0 594.5 300.0) scale(0.9995552861678866 0.9986501578699457)"><svg width="1189.529" height="600.811" viewBox="0 0 1189.529 600.811"><path d="M291.989 586.708a7 7 0 0 1-7-7V407.536a7 7 0 1 1 14 0v172.172a7 7 0 0 1-7 7Z" style="fill:#25242e"/><rect x="277.819" y="19.196" width="28.34" height="406.723" rx="2.396" ry="2.396" style="fill:#fff"/><path d="M303.382 427.42h-22.785a4.283 4.283 0 0 1-4.278-4.278V19.196a1.5 1.5 0 0 1 1.5-1.5h28.34a1.5 1.5 0 0 1 1.5 1.5v403.946a4.283 4.283 0 0 1-4.277 4.278ZM279.319 20.696v402.446a1.28 1.28 0 0 0 1.278 1.278h22.785c.704 0 1.277-.573 1.277-1.278V20.696h-25.34Z" style="fill:#25242e"/><rect x="277.819" y="549.858" width="28.34" height="37.061" rx="2.396" ry="2.396" style="fill:#fff"/><path d="M306.159 588.42h-28.34a1.5 1.5 0 0 1-1.5-1.5v-34.284a4.282 4.282 0 0 1 4.278-4.277h22.785a4.282 4.282 0 0 1 4.277 4.277v34.284a1.5 1.5 0 0 1-1.5 1.5Zm-26.84-3h25.34v-32.784c0-.704-.573-1.277-1.277-1.277h-22.785c-.705 0-1.278.573-1.278 1.277v32.784Z" style="fill:#25242e"/><path d="M118.432 572.38h347.115c14.864 0 26.932 12.068 26.932 26.932H91.5c0-14.864 12.068-26.932 26.932-26.932Z" style="fill:#fff"/><path d="M492.479 600.812H91.5a1.5 1.5 0 0 1-1.5-1.5c0-15.677 12.754-28.432 28.431-28.432h159.388a1.5 1.5 0 1 1 0 3H118.431c-13.52 0-24.609 10.604-25.387 23.932h397.891c-.778-13.328-11.868-23.932-25.388-23.932H291.989a1.5 1.5 0 1 1 0-3h173.558c15.677 0 28.432 12.754 28.432 28.432a1.5 1.5 0 0 1-1.5 1.5Z" style="fill:#25242e"/><rect x="1.5" y="1.5" width="1186.529" height="42.229" rx="10.635" ry="10.635" style="fill:#fff"/><path d="M1177.393 45.229H12.135C5.444 45.229 0 39.785 0 33.094V12.135C0 5.444 5.444 0 12.135 0h1165.258c6.691 0 12.135 5.444 12.135 12.135v20.959c0 6.691-5.444 12.135-12.135 12.135ZM12.135 3C7.098 3 3 7.098 3 12.135v20.959c0 5.037 4.098 9.135 9.135 9.135h1165.258c5.037 0 9.135-4.098 9.135-9.135V12.135c0-5.037-4.098-9.135-9.135-9.135H12.135Z" style="fill:#25242e"/><path d="M1177.393 45.229a1.5 1.5 0 1 1 0-3c5.037 0 9.135-4.098 9.135-9.135V12.135c0-5.037-4.098-9.135-9.135-9.135a1.5 1.5 0 1 1 0-3c6.691 0 12.135 5.444 12.135 12.135v20.959c0 6.691-5.444 12.135-12.135 12.135Z" style="fill:#25242e"/></svg></g><g transform="translate(266.0 367.0) rotate(0.0 516.5 308.0) scale(0.9998064266356949 0.9985410925595721)"><svg width="1033.2" height="616.9" viewBox="0 0 1033.2 616.9"><g fill="#bbddfa"><path d="M518.3 304.6h279.4l3.5 57.4H518.3z"/><path d="M402.6 616.9h118.1l61.7-172.8-71.9-177.4-119.3 334.1c-2.8 7.8 3.1 16.1 11.4 16.1z"/><path d="M645.9 616.9H465.7v-13.7h166.5c7.6 0 13.7 6.1 13.7 13.7z"/></g><path d="M549.8 604.7h-84.1c-.8 0-1.5-.7-1.5-1.5s.7-1.5 1.5-1.5h84.1c.8 0 1.5.7 1.5 1.5s-.6 1.5-1.5 1.5z" fill="#25242e"/><path d="M408.7 279.3 47 173.8H29c-18 0-31.7 16.3-28.6 34.1l54.8 311.8c2.4 13.9 14.5 24 28.6 24h510.9c18 0 31.7-16.3 28.6-34.1l-105.9-95.8c-2.3-13.9-94.6-134.5-108.7-134.5z" fill="#bbddfa"/><path d="M540 173.8H47c-18 0-31.7 16.3-28.6 34.1l54.8 311.8c2.4 13.9 14.5 24 28.6 24h492.9c18 0 31.7-16.3 28.6-34.1l-54.8-311.8c-2.3-13.8-14.4-24-28.5-24z" fill="#fff"/><path d="m66 519.3-7-36.9h559l.7.1 4.8 27c3.1 17.8-10.5 34.1-28.6 34.1h-493c-14.1.1-33.5-10.4-35.9-24.3z" fill="#bbddfa"/><path d="M623.4 511.1c-.7 0-1.3-.5-1.5-1.2l-54.8-311.8c-2.3-13.2-13.7-22.8-27.1-22.8H47c-8.2 0-15.8 3.6-21.1 9.8-.5.6-1.5.7-2.1.2s-.7-1.5-.2-2.1c5.8-6.9 14.3-10.9 23.4-10.9h493c14.9 0 27.5 10.6 30.1 25.2l54.8 311.8c.1.8-.4 1.6-1.2 1.7-.1.1-.2.1-.3.1zm-31 34.1H404.1c-.8 0-1.5-.7-1.5-1.5s.7-1.5 1.5-1.5h188.3c.8 0 1.5.7 1.5 1.5s-.6 1.5-1.5 1.5z" fill="#25242e"/><path d="M1005.4 543.7H671.8c-13.4 0-25-9.7-27.3-22.9L558.4 34.1c-3-17 10.1-32.6 27.3-32.6h333.6c13.4 0 25 9.6 27.3 22.9l86.2 486.7c2.9 17-10.1 32.6-27.4 32.6z" fill="#bbddfa"/><path d="M978.5 543.7H690.8c-13.4 0-25-9.7-27.3-22.9L577.4 34.1c-3-17 10.1-32.6 27.3-32.6h277.8z" fill="#fff"/><path d="M897.7 3H589.3c-.8 0-1.5-.7-1.5-1.5s.7-1.5 1.5-1.5h308.3c.8 0 1.5.7 1.5 1.5s-.6 1.5-1.4 1.5zm92.2 542.2H690.8c-.8 0-1.5-.7-1.5-1.5s.7-1.5 1.5-1.5h299.1c.8 0 1.5.7 1.5 1.5s-.7 1.5-1.5 1.5zM618.7 376.5c-.7 0-1.3-.5-1.5-1.2l-16.2-92c-.1-.8.4-1.6 1.2-1.7s1.6.4 1.7 1.2l16.3 91.9c.1.8-.4 1.6-1.2 1.7-.1.1-.2.1-.3.1z" fill="#25242e"/></svg></g><g transform="translate(884.0 410.0) rotate(0.0 156.5 221.5) scale(0.9983828112290953 0.9982266267376017)"><svg width="313.507" height="443.787" viewBox="0 0 313.507 443.787"><g fill="#bbddfa"><circle cx="68.884" cy="83.888" r="5.026"/><circle cx="75.819" cy="123.32" r="5.026"/><circle cx="82.754" cy="162.749" r="5.026"/><circle cx="117.43" cy="359.9" r="5.026"/><circle cx="74.365" cy="399.328" r="5.026"/><circle cx="81.301" cy="438.761" r="5.026"/><path d="M218.075 8.026H55.026a3 3 0 1 1 0-6h163.049a3 3 0 1 1 0 6zM61.962 47.456a3 3 0 1 1 0-6h82.837a2.998 2.998 0 1 1 0 5.999H61.962zm56.761 39.432a3 3 0 1 1 0-6l113.173-.003a3 3 0 1 1 0 6zm7.109 39.431a3 3 0 1 1 0-6h91.35a2.999 2.999 0 1 1 0 5.999h-91.35zm6.935 39.428a3 3 0 1 1 0-6l99.129-.002a3 3 0 1 1 0 6zm177.74 157.799h-99.986a3 3 0 1 1 0-6h99.986a3 3 0 1 1 0 6zM300.363 362.9h-132.92a3 3 0 1 1 0-6h132.92a3 3 0 1 1 0 6zm-109.607 39.428h-66.378a3 3 0 1 1 0-6h66.378a3 3 0 1 1 0 6z"/><circle cx="96.578" cy="241.606" r="5.026"/><circle cx="153.513" cy="281.034" r="5.026"/><circle cx="160.448" cy="320.467" r="5.026"/><path d="M189.655 205.252H89.669a3 3 0 1 1 0-6h99.986a3 3 0 1 1 0 6zm16.616 39.354H146.59a3 3 0 1 1 0-6h59.681a3 3 0 1 1 0 6zm63.633 39.428h-66.378a3 3 0 1 1 0-6h66.378a3 3 0 1 1 0 6zm11.325 157.727H131.314a3 3 0 1 1 0-6H281.23a3 3 0 1 1 0 6z"/><circle cx="5.026" cy="5.026" r="5.026"/><circle cx="11.949" cy="44.459" r="5.026"/><circle cx="39.655" cy="202.172" r="5.026"/></g></svg></g><g transform="translate(502.0 518.0) rotate(0.0 547.0 531.0) scale(0.999295743128015 0.9999981167643752)"><svg width="1094.771" height="1062.002" viewBox="0 0 1094.771 1062.002"><path d="m174.721 853.284-40.689 82.158s96.294 116.358 112.537 56.336c18.088-21.37 64.405-75.973 86.405-99.792 37.302-40.385-119.659-116.629-158.252-38.703z" fill="#eda38c"/><path d="m136.786 917.109-9.57 13.92s-55.2-1.117-64.713-1.402c-27.365-.819-40.157 2.071-48.063 21.525l62.705 25.493 162.532 65.886c8.365-19.131 14.267-38.1 14.259-56.684 0 0 8.721-5.175 15.453-8.915 8.164-4.536-.151-17.632-9.699-10.144a2571.507 2571.507 0 0 0-9.167 7.232c-3.632 2.877-8.321 4.108-12.951 3.408l-29.122-4.408a48.842 48.842 0 0 1-24.975-11.644l-25.784-22.731 5.559-7.475c3.523-4.737 1.806-11.519-3.579-14.135l-7.828-3.803c-5.335-2.592-11.744-.942-15.057 3.877z" fill="#f0e760"/><path d="M133.948 955.463c-1.264 0-2.534-.096-3.802-.292l-59.593-9.19c-8.228-1.269-14.507-8.161-14.931-16.388a1.5 1.5 0 0 1 1.421-1.575 1.493 1.493 0 0 1 1.575 1.421c.351 6.814 5.563 12.524 12.392 13.578l59.593 9.19c7.606 1.172 15.338-1.73 20.18-7.576l5.752-6.943a1.5 1.5 0 1 1 2.31 1.914l-5.752 6.943c-4.703 5.678-11.796 8.918-19.146 8.918z" fill="#25242e"/><path d="m7.677 969.351 62.16 25.271 161.012 65.394c5.183 1.65 10.692-1.155 12.306-6.266 1.614-5.111-1.28-10.591-6.462-12.241L76.607 976.426l-61.621-25.052c-5.039-2.049-10.76.315-12.778 5.279-2.018 4.964.431 10.649 5.47 12.698z" fill="#fff"/><path d="M233.887 1061.993c-1.168 0-2.344-.182-3.493-.547a1.422 1.422 0 0 1-.109-.04L69.273 996.012l-62.16-25.271a11.35 11.35 0 0 1-6.194-6.052c-1.193-2.77-1.229-5.825-.1-8.601s3.285-4.939 6.073-6.091a11.355 11.355 0 0 1 8.66-.013l221.655 90.114c5.924 1.92 9.234 8.233 7.38 14.104a11.039 11.039 0 0 1-5.49 6.515 11.286 11.286 0 0 1-5.208 1.276zm-2.53-3.389a8.332 8.332 0 0 0 6.357-.55 8.062 8.062 0 0 0 4.01-4.755c1.363-4.315-1.099-8.963-5.487-10.36a1.445 1.445 0 0 1-.11-.04L14.42 952.764a8.364 8.364 0 0 0-6.384.006c-2.039.842-3.616 2.422-4.439 4.448s-.796 4.258.077 6.284a8.368 8.368 0 0 0 4.568 4.459l62.16 25.271 160.956 65.371z" fill="#25242e"/><path d="M782.827 333.908c-24.509 33.527-24.103 89.459-8.12 128.988l49.889-.223 1.833-132.161-43.603 3.395z" fill="#f05467"/><path d="M225.297 425.747c4.566 9.499 46.252 38.153 102.025 35.841 49.701-13.616 45.129-136.678-27.182-125.903-13.507 2.013-36.23 5.204-60.009 10.844-35.313 8.376-25.655 56.705-14.834 79.218z" fill="#eda38c"/><path d="M300.059 343.767c-24.478-2.494-68.363-3.598-103.017 22.156-25.291 18.796-10.821 41.173 11.651 34.223 12.939-4.001 22.006-6.826 32.777-8.765 11.022-1.984 21.492.582 33.839 3.89 12.023 3.221 49.228-49.011 24.75-51.505z" fill="#eda38c"/><path d="M271.823 356.34c-24.42-3.009-68.272-5.037-103.461 19.982-25.681 18.259-11.686 40.936 10.928 34.461 13.02-3.728 22.144-6.361 32.954-8.073 11.061-1.752 21.475 1.035 33.75 4.602 11.952 3.474 50.249-47.963 25.829-50.973z" fill="#eda38c"/><path d="M188.721 366.5a1.5 1.5 0 0 1-.594-2.878c16.889-7.278 36.422-10.877 58.091-10.693a1.5 1.5 0 0 1-.013 3h-.013c-21.236-.169-40.374 3.336-56.878 10.448a1.504 1.504 0 0 1-.593.123z" fill="#25242e"/><path d="M264.443 385.486c-23.979-5.515-67.387-12.06-104.971 9.191-27.429 15.509-15.851 39.511 7.311 35.406 13.335-2.364 22.683-4.04 33.612-4.627 11.183-.6 21.254 3.247 33.094 8.063 11.53 4.689 54.933-42.518 30.955-48.033z" fill="#eda38c"/><path d="M151.246 402.058a1.5 1.5 0 0 1-1.005-2.615c.171-.154 4.227-3.791 8.523-6.09 23.892-12.782 49.869-17.386 79.42-14.072a1.5 1.5 0 1 1-.335 2.982c-28.926-3.245-54.332 1.249-77.67 13.736-3.968 2.123-7.891 5.638-7.93 5.673a1.496 1.496 0 0 1-1.003.385z" fill="#25242e"/><path d="M994.037 446.888c-13.545-4.454-116.212-47.999-116.212-47.999-54.411-56.57-6.078-176.871 37.554-158.517 40.806 17.92 72.01 34.395 140.154 77.457 53.647 33.901 52.374 110.971-4.37 135.722-12.188 5.316-30.869 1.971-57.126-6.663z" fill="#f05467"/><path d="M565.24 879.903c48.389 59.206 91.265 111.43 91.265 111.43s129.533 24.79 123.921-30.295c-9.039-19.057-39.8-83.913-55.918-115.666-15.552-30.639-216.218-35.149-159.269 34.531z" fill="#eda38c"/><path d="M424.484 544.026c-37.934 41.767-47.856 111.445-13.498 184.497 10.593 22.523 30.68 81.191 80.068 140.217 23.32 27.871 47.843 16.476 91.822 70.335l141.633-93.703c-8.953-20.06-17.507-39.603-22.784-52.587-12.939-31.831-27.53-56.892-44.03-78.763-16.976-22.502-177.332-231.52-233.21-169.997z" fill="#56b1f0"/><path d="M602.695 927.487c-.435 0-.866-.188-1.163-.551-22.936-28.089-40.311-38.131-54.797-45.339a1.5 1.5 0 1 1 1.336-2.686c14.766 7.347 32.472 17.577 55.785 46.127a1.501 1.501 0 0 1-1.161 2.449zm19.354-12.809c-.435 0-.866-.188-1.163-.551-9.368-11.473-18.406-20.685-27.631-28.162a1.5 1.5 0 1 1 1.889-2.33c9.385 7.607 18.566 16.961 28.065 28.595a1.501 1.501 0 0 1-1.161 2.449zm35.493-23.501c-.488 0-.966-.237-1.254-.675-53.757-81.653-156.406-237.007-160.95-241.783a1.501 1.501 0 0 1 1.736-2.44c3.181 1.987 124.586 186.171 161.72 242.574a1.5 1.5 0 0 1-1.251 2.325zM495.481 648.821l.003.002z" fill="#25242e"/><path d="m636.617 978.002 4.91 5.185s-43.823 16.543-52.744 19.86c-25.661 9.542-36.425 17.033-36.427 38.032l67.689.017 175.379-.133c.549-20.872-1.122-40.668-8.125-57.883 0 0 3.523-11.253 6.228-18.463 3.281-8.744-11.537-13.334-13.96-1.444-.714 3.505-1.582 7.845-2.298 11.448-.903 4.544-3.747 5.724-8.3 6.818l-33.339 8.006a32.406 32.406 0 0 1-18.272-.923l-44.732-9.749-10.97-17.234c-2.464-5.364-9.238-7.114-14.118-3.647l-7.094 5.041c-4.835 3.436-6.465 9.85-3.828 15.07z" fill="#f0e760"/><path d="M598.324 1015.646c-6.708 0-13.023-3.828-15.928-10.04a1.5 1.5 0 1 1 2.718-1.27c2.89 6.18 9.866 9.509 16.591 7.915l58.67-13.916c7.487-1.776 13.559-7.375 15.845-14.613l1.252-3.966a1.5 1.5 0 0 1 2.861.903l-1.252 3.966c-2.602 8.239-9.504 14.611-18.013 16.629l-58.67 13.916a17.631 17.631 0 0 1-4.073.477z" fill="#25242e"/><path d="m552.939 1060.485 67.101.017 173.785-.017c5.423-.422 9.471-5.095 9.042-10.437-.429-5.342-5.172-9.33-10.594-8.908l-172.81-.044-66.519-.017c-5.439-.001-9.85 4.342-9.851 9.7-.001 5.359 4.407 9.704 9.847 9.705z" fill="#fff"/><path d="m620.041 1062.002-67.102-.017c-6.258-.001-11.347-5.028-11.346-11.206.002-6.176 5.093-11.2 11.349-11.2h.003l239.273.06c6.213-.453 11.653 4.153 12.145 10.288a11.043 11.043 0 0 1-2.634 8.103c-1.971 2.31-4.737 3.712-7.787 3.95a1.516 1.516 0 0 1-.116.004l-173.785.017zm-67.101-3.017 67.101.017 173.724-.017a8.334 8.334 0 0 0 5.682-2.902 8.062 8.062 0 0 0 1.926-5.915c-.362-4.511-4.401-7.895-8.983-7.533a1.524 1.524 0 0 1-.117.004l-239.329-.06h-.002c-4.603 0-8.348 3.678-8.349 8.201 0 4.523 3.743 8.203 8.347 8.205z" fill="#25242e"/><path d="M831.376 493.17s-284.37 9.596-329.891 16.527c-60.177 9.163-94.938 42.369-104.629 83.46-25.2 106.85 107.039 96.645 139.921 97.079s221.55 3.509 306.082-1.578c131.624-7.921 156.593-108.19 139.557-197.66-17.036-89.469-151.039 2.171-151.039 2.171z" fill="#56b1f0"/><path d="m632.238 71.21-24.391 5.11c.562-30.089 13.919-49.843 46.716-53.895z" fill="#25242e"/><path d="M633.769 98.154c-7.578-44.388 8.532-79.738 56.869-84.306 50.014-4.727 75.597 27.327 80.04 71.368 9.75-16.144 29.332-5.873 30.831 10.054 1.109 11.784-10.322 25.153-30.241 20.054-9.462 40.659-48.302 60.657-85.154 59.444-45.119-1.485-75.493-41.161-52.344-76.613z" fill="#eda38c"/><path d="M737.857 48.854s4.167 16.343 9.427 31.77c7.374 21.626 23.71 16.777 23.394 4.591-1.56-20.276-8.694-36.877-19.91-50.788l-12.912 14.427zm52.312 53.216a1.5 1.5 0 0 1-.895-.297l-12.433-9.255a1.5 1.5 0 1 1 1.792-2.407l12.433 9.255a1.5 1.5 0 0 1-.897 2.703z" fill="#25242e"/><path d="M779.831 103.047a1.502 1.502 0 0 1-1.191-2.411l9.282-12.153a1.5 1.5 0 1 1 2.385 1.822l-9.282 12.153a1.499 1.499 0 0 1-1.193.589zm-84.627-16.964c-.608 0-1.18-.373-1.406-.976-2.946-7.885-10.437-14.35-20.529-11.013a1.5 1.5 0 1 1-.941-2.849c11.923-3.94 20.944 3.88 24.281 12.812a1.5 1.5 0 0 1-1.405 2.025z" fill="#25242e"/><path d="M680.203 84.463c.851 7.419 4.23 13.126 7.547 12.745 3.318-.38 5.318-6.703 4.467-14.123-.34-2.966-1.084-5.659-2.067-7.798-3.273-2.024-8.033-3.387-8.435-2.666-2.338 4.192-1.79 9.418-1.512 11.841zm-28.02 4.072c-.608 0-1.18-.373-1.406-.976-2.635-7.054-9.327-13.376-18.333-11.594a1.501 1.501 0 0 1-.581-2.944c10.734-2.118 18.646 5.245 21.725 13.487a1.5 1.5 0 0 1-1.405 2.025z" fill="#25242e"/><path d="M637.182 86.915c.851 7.419 4.23 13.126 7.547 12.745 3.318-.38 5.318-6.703 4.467-14.123-.34-2.966-1.084-5.659-2.067-7.798-3.273-2.024-8.033-3.387-8.435-2.666-2.338 4.192-1.79 9.418-1.512 11.841z" fill="#25242e"/><path d="M667.895 121.525c.601-11.492-23.996-12.485-23.591-.964-2.193 4.741 1.301 12.287 9.961 13.245 8.347.924 16.709-6.108 13.63-12.281z" fill="#c27065"/><path d="M656.751 124.654c-4.696 0-9.254-.774-13.13-2.757a1.5 1.5 0 1 1 1.367-2.671c10.905 5.581 28.707.225 36.598-3.387a1.499 1.499 0 1 1 1.248 2.727c-6.044 2.767-16.357 6.087-26.083 6.087zm4.506-106.484c48.548-37.286 101.979-13.148 131.037 35.81l-80.542 5.701c-6.78-5.797-14.257-11.603-18.369-14.254l9.056 15.629-11.094.874c-8.776-6.343-16.665-14.276-24.098-23.025-.106 9.048 2.545 17.178 8.32 24.268l-23.542 1.854c-10.451-8.681-12.983-20.383-7.596-35.106-24.26 6.371-33.862 27.57-32.563 45.559l-6.942 1.454c-9.287-29.722 6.35-70.398 56.333-58.763z" fill="#25242e"/><path d="M736.394 59.881a1.5 1.5 0 0 1-.116-2.995l33.605-2.646a1.501 1.501 0 0 1 .235 2.991l-33.605 2.646c-.04.003-.08.004-.119.004zM611.863 76.979a1.5 1.5 0 0 1-1.495-1.392c-1.349-18.696 8.541-40.516 33.678-47.117a1.5 1.5 0 0 1 .762 2.902c-23.473 6.165-32.708 26.541-31.448 44a1.5 1.5 0 0 1-1.388 1.604c-.037.002-.073.004-.109.004z" fill="#fff"/><path d="M823.075 323.825c27.701.725 164.096 6.128 164.096 6.128s120.171 79.946 82.947 111.815c-14.582 12.485-35.642 20.272-63.202 19.544-90.371-2.387-193.177 1.361-193.177 1.361-35.999-31.614-22.06-139.67 9.336-138.848z" fill="#f05467"/><path d="M915.378 240.372c-31.936-15.37-57.586-23.532-86.277-28.739-36.945-6.705-87.826-11.186-126.15-10.325-30.781.692-74.318 3.794-120.076 36.849-15.067 10.884 71.994 109.844 71.994 109.844l195.397 12.436s90.787-107.707 65.112-120.064z" fill="#f05467"/><path d="M761.376 493.17s-248.961 10.393-294.799 14.764c-128.242 12.231-179.034 117.544-191.913 143.548l-99.943 201.801c29.038 15.426 135.02 52.086 163.126 62.702 51.296-63.649 78.49-44.028 108.998-101.947 35.451-67.303 45.957-91.667 57.706-123.271 83.547 1.145 193.782 1.108 268.306.21 132.692-1.598 156.593-110.509 139.557-199.978s-151.039 2.171-151.039 2.171z" fill="#56b1f0"/><path d="M446.845 815.539a1.499 1.499 0 0 1-1.326-2.199c34.726-65.927 45.429-90.283 57.627-123.095.221-.595.818-.969 1.427-.978 78.691 1.08 189.006 1.166 268.267.21 49.344-.594 86.781-16.085 111.271-46.044 28.763-35.186 38.542-90.644 26.831-152.153a1.5 1.5 0 1 1 2.947-.561c11.878 62.384 1.871 118.738-27.455 154.613-25.078 30.678-63.284 46.54-113.557 47.146-78.93.952-188.645.871-267.287-.196-12.094 32.444-22.962 57.047-57.416 122.457a1.5 1.5 0 0 1-1.328.801zm-128.681 94.563a1.5 1.5 0 0 1-1.167-2.441c24.582-30.501 43.734-42.043 59.123-51.317a1.5 1.5 0 0 1 1.549 2.569c-15.187 9.152-34.087 20.542-58.336 50.63a1.497 1.497 0 0 1-1.169.559zm-19.828-7.05a1.5 1.5 0 0 1-1.167-2.441c9.604-11.916 19.023-21.765 28.798-30.11a1.501 1.501 0 0 1 1.948 2.282c-9.631 8.224-18.924 17.942-28.409 29.712a1.497 1.497 0 0 1-1.169.559z" fill="#25242e"/><path d="M239.866 881.696a1.5 1.5 0 0 1-1.343-2.166c26.483-53.474 48.446-96.709 61.568-122.542 6.21-12.225 10.697-21.058 13.229-26.17l.422-.852c6.891-13.93 23.03-46.551 53.519-77.462 38.136-38.665 84.961-60.891 139.174-66.061 23.168-2.21 63.784-4.872 103.063-7.446 38.512-2.524 78.335-5.134 101.739-7.319 42.043-3.923 65.068-27.896 70.388-73.289a1.5 1.5 0 1 1 2.979.35c-5.434 46.362-30.025 71.908-73.089 75.927-23.446 2.188-63.29 4.799-101.822 7.325-39.257 2.573-79.851 5.233-102.974 7.439-83.642 7.978-147.664 55.708-190.289 141.867l-.422.853c-2.539 5.127-7.029 13.965-13.243 26.198-13.12 25.827-35.078 69.054-61.554 122.514a1.5 1.5 0 0 1-1.345.835z" fill="#25242e"/><path d="M729.645 508.089c81.06 58.972 184.691 75.268 255.008 63.583a210.15 210.15 0 0 0 2.209-43.874l-257.218-19.709z" fill="#f05467"/><path d="M920.463 304.166s47.788 93.702 57.24 117.191 62.504 34.462 9.159 106.441c-79.676 24.794-186.82 6.821-288.517-31.913-37.032-12.097-15.974-40.79-23.423-57.978-9.503-21.926-43.225-109.702-43.225-109.702l288.766-24.04zM300.14 335.685c-34.866 23.832-36.908 98.357 6.096 125.335 6.266.571 33.712 2.129 55.673 3.431L343.742 332.29l-43.603 3.395z" fill="#f05467"/><path d="M357.144 320.719c12.006-1.711 131.017.327 131.017.327l94.714-82.889C653.94 204.832 739.692 315.991 708.28 351.4c-35.222 32.809-50.256 46.1-80.988 71.034-60.586 49.157-108.667 42.24-161.81 42.24H347.609c-62.127-20-57.02-134.468 9.533-143.954z" fill="#f05467"/><path d="M452.408 348.713a1.5 1.5 0 0 1-.888-2.71l35.755-26.168a1.5 1.5 0 1 1 1.772 2.421l-35.755 26.168c-.267.195-.577.29-.885.29z" fill="#25242e"/><path d="M824.358 210.786s6.395 11.04 9.007 16.153c3.668 7.18 3.668 15.031-1.885 22.308-3.121 4.09-10.665 11.955-10.665 11.955s-49.787-46.357-75.848-70.12c-35.085-31.991-51.294-1.146-60.418 11.269 0 0 10.504-.409 18.433-.087 10.347 8.394 23.627 44.449 30.594 60.745a67.4 67.4 0 0 0 14.414 21.268l82.845 63.447c10.199 7.811 25.05 3.433 29.381-8.662l25.743-71.891c4.252-11.874 1.235-25.175-7.821-33.953-8.169-7.917-17.614-15.633-29.011-26.728-14.483-14.101-34.523-30.072-57.639-.363 14.885 1.418 32.869 4.658 32.869 4.658z" fill="#f05467"/><g fill="#25242e"><path d="M832.645 273.695c-.366 0-.732-.133-1.021-.401l-11.83-10.994a1.5 1.5 0 1 1 2.042-2.198l11.83 10.994a1.5 1.5 0 0 1-1.021 2.599z"/><path d="M820.816 262.702c-.366 0-.733-.133-1.022-.402-.498-.463-50.08-46.624-75.837-70.109a1.5 1.5 0 0 1 2.021-2.217c23.64 21.555 67.333 62.195 74.772 69.119 2.157-2.283 7.18-7.666 9.538-10.756 6.102-7.995 4.315-15.678 1.742-20.715-2.216-4.337-7.252-13.106-8.621-15.48-3.423-.601-19.034-3.278-32.062-4.52-.825-.079-1.429-.811-1.351-1.635s.812-1.439 1.635-1.351c14.776 1.408 32.812 4.642 32.992 4.675a1.5 1.5 0 0 1 1.032.724c.262.452 6.445 11.133 9.045 16.222 4.192 8.206 3.472 16.693-2.028 23.9-3.136 4.11-10.464 11.76-10.775 12.083a1.494 1.494 0 0 1-1.083.461z"/><path d="M842.295 353.15c-4.417 0-8.731-1.447-12.371-4.235l-82.845-63.448c-.052-.04-.1-.082-.146-.128a68.606 68.606 0 0 1-14.735-21.741c-1.217-2.846-2.652-6.356-4.17-10.072-6.959-17.025-17.421-42.624-25.617-49.784-7.714-.278-17.701.103-17.803.107-.83.008-1.525-.613-1.557-1.441s.613-1.525 1.44-1.557c.105-.004 10.655-.407 18.552-.087.323.013.633.13.884.334 8.845 7.176 19.267 32.674 26.877 51.293 1.514 3.704 2.944 7.204 4.152 10.027a65.603 65.603 0 0 0 14.025 20.726l82.768 63.388c4.477 3.429 10.147 4.48 15.555 2.886 5.409-1.594 9.601-5.554 11.502-10.863l25.743-71.891c4.061-11.34 1.135-24.046-7.453-32.37-3.665-3.552-7.645-7.114-11.858-10.884-5.099-4.563-10.879-9.736-17.155-15.846a1.5 1.5 0 1 1 2.093-2.149c6.231 6.066 11.985 11.216 17.063 15.76 4.236 3.791 8.238 7.372 11.946 10.965 9.432 9.141 12.646 23.09 8.189 35.536l-25.743 71.891c-2.228 6.221-7.14 10.86-13.478 12.729a20.682 20.682 0 0 1-5.856.854zm-215.001 70.784a1.5 1.5 0 0 1-.946-2.665c29.784-24.165 44.907-37.43 80.91-70.967a1.5 1.5 0 1 1 2.045 2.195c-36.064 33.594-51.217 46.884-81.065 71.102a1.496 1.496 0 0 1-.944.335zm-279.683 42.24c-.152 0-.307-.023-.46-.073-15.358-4.944-27.656-15.844-35.563-31.521-7.124-14.123-10.237-31.418-8.766-48.699 2.343-27.521 17.92-61.488 54.11-66.647a1.5 1.5 0 1 1 .424 2.97c-34.446 4.91-49.295 37.508-51.544 63.932-2.534 29.771 9.609 66.599 42.259 77.11a1.5 1.5 0 0 1-.459 2.928zm556.272 74.534c-75.104 0-151.982-22.819-206.071-43.42a1.5 1.5 0 0 1 1.068-2.804c87.902 33.479 169.445 47.953 235.819 41.853a1.5 1.5 0 0 1 .275 2.987c-10.285.945-20.671 1.384-31.09 1.384zm59.071-5.387a1.5 1.5 0 0 1-.289-2.972c8.033-1.585 15.864-3.549 23.283-5.838 38.798-52.569 20.145-71.182 3.681-87.607-5.57-5.557-10.831-10.806-13.318-16.986-7.183-17.851-37.105-77.415-49.637-102.195a1.499 1.499 0 0 1 .662-2.015 1.499 1.499 0 0 1 2.016.662c15.587 30.823 42.777 85.116 49.743 102.429 2.258 5.611 7.307 10.649 12.654 15.982 16.505 16.466 37.046 36.959-3.681 91.911a1.494 1.494 0 0 1-.76.539c-7.66 2.383-15.755 4.423-24.061 6.063a1.537 1.537 0 0 1-.292.029zM504.552 692.267h-32.683a1.5 1.5 0 1 1 0-3h32.683a1.5 1.5 0 1 1 0 3zm172.65-424.836a1.5 1.5 0 0 1-1.296-.743c-.274-.467-27.783-46.73-64.059-44.361a1.5 1.5 0 0 1-.195-2.994c38.136-2.469 65.689 43.867 66.843 45.841a1.5 1.5 0 0 1-1.294 2.258zm239.954 3.882a1.5 1.5 0 0 1-1.493-1.657l2.798-26.479a1.5 1.5 0 0 1 2.983.315l-2.798 26.479a1.5 1.5 0 0 1-1.49 1.342z"/></g></svg></g><g transform="translate(1127.0 831.0) rotate(0.0 295.0 374.5) scale(0.998544494465694 0.9993848912751965)"><svg width="590.86" height="749.461" viewBox="0 0 590.86 749.461"><path d="M54.998 732.847a7 7 0 0 1-6.874-8.362 127.169 127.169 0 0 1 31.832-62.141 127.164 127.164 0 0 1 59.824-35.999l88.655-23.951a7 7 0 0 1 3.651 13.515l-88.655 23.951c-41.886 11.316-73.144 44.784-81.574 87.345a7.002 7.002 0 0 1-6.859 5.642z" fill="#25242e"/><path d="M405.522 732.847a7.002 7.002 0 0 1-6.859-5.641c-8.43-42.56-39.688-76.029-81.574-87.345l-88.655-23.951a7 7 0 0 1 3.651-13.515l88.655 23.951c22.927 6.194 43.614 18.642 59.824 35.999s27.217 38.845 31.832 62.141a7 7 0 0 1-6.874 8.361z" fill="#25242e"/><path d="M230.26 616.152a7 7 0 0 1-7-7V436.98a7 7 0 1 1 14 0v172.172a7 7 0 0 1-7 7z" fill="#25242e"/><path d="M218.507 540.606h23.506a2.417 2.417 0 0 0 2.417-2.417V409.664h-28.34v128.525a2.417 2.417 0 0 0 2.417 2.417z" fill="#fff"/><path d="M364.43 1.5h178.508c32.199 0 54.602 32.004 43.581 62.258L457.27 418.566a33.692 33.692 0 0 1-31.657 22.16H171.962L320.849 32.007C327.521 13.69 344.935 1.5 364.43 1.5z" fill="#fff"/><path d="M242.013 542.106h-23.506a3.921 3.921 0 0 1-3.917-3.917V409.664a1.5 1.5 0 0 1 1.5-1.5h28.341a1.5 1.5 0 0 1 1.5 1.5v128.525a3.923 3.923 0 0 1-3.918 3.917zm-24.424-130.942v127.025c0 .506.412.917.917.917h23.506a.918.918 0 0 0 .917-.917V411.164z" fill="#25242e"/><path d="M314.43 1.5h178.508c32.199 0 54.602 32.004 43.581 62.258L399.198 440.726H121.962L270.849 32.007C277.521 13.69 294.935 1.5 314.43 1.5z" fill="#fff"/><path d="M32.562 440.726h394.635c17.155 0 31.062-13.907 31.062-31.062s-13.907-31.062-31.062-31.062H32.562c-17.155 0-31.062 13.907-31.062 31.062s13.907 31.062 31.062 31.062zM216.09 609.045c0 15.605 28.34 15.605 28.34 0v-27.349a2.417 2.417 0 0 0-2.417-2.417h-23.506a2.417 2.417 0 0 0-2.417 2.417z" fill="#fff"/><circle cx="405.529" cy="722.182" fill="#fff" r="25.779"/><circle cx="55.067" cy="721.998" fill="#fff" r="25.779"/><g fill="#25242e"><path d="M257.686 442.226h-72.529a1.5 1.5 0 1 1 0-3h72.529a1.5 1.5 0 1 1 0 3z"/><path d="M427.198 442.226H32.562C14.607 442.226 0 427.619 0 409.664s14.607-32.562 32.562-32.562h110.98L269.439 31.494C276.302 12.656 294.382 0 314.43 0h228.508c15.843 0 30.141 7.444 39.227 20.423s11.187 28.961 5.764 43.848L458.68 419.079a35.41 35.41 0 0 1-2.327 5.082c-5.506 11.119-16.691 18.065-29.155 18.065zM32.562 380.102C16.261 380.102 3 393.363 3 409.664s13.261 29.562 29.562 29.562h394.636c11.316 0 21.471-6.307 26.5-16.46a32.8 32.8 0 0 0 2.163-4.713L585.109 63.245c5.083-13.954 3.113-28.935-5.403-41.101S557.788 3 542.938 3H314.43c-18.792 0-35.739 11.863-42.172 29.52L146.002 379.115a1.5 1.5 0 0 1-1.409.987zM230.26 622.249c-7.787 0-15.67-4.535-15.67-13.204v-27.349a3.921 3.921 0 0 1 3.917-3.917h23.506a3.921 3.921 0 0 1 3.917 3.917v27.349c0 8.668-7.883 13.204-15.67 13.204zm-11.753-41.47a.918.918 0 0 0-.917.917v27.349c0 7.01 6.568 10.204 12.67 10.204 6.103 0 12.67-3.193 12.67-10.204v-27.349a.918.918 0 0 0-.917-.917zm187.022 168.682c-15.042 0-27.28-12.238-27.28-27.28s12.238-27.279 27.28-27.279 27.279 12.238 27.279 27.279c0 15.043-12.237 27.28-27.279 27.28zm0-51.559c-13.388 0-24.28 10.892-24.28 24.279 0 13.388 10.892 24.28 24.28 24.28s24.279-10.892 24.279-24.28c0-13.387-10.891-24.279-24.279-24.279zM55.067 749.277c-15.042 0-27.279-12.238-27.279-27.279s12.237-27.279 27.279-27.279 27.279 12.238 27.279 27.279-12.237 27.279-27.279 27.279zm0-51.558c-13.388 0-24.279 10.892-24.279 24.279s10.892 24.279 24.279 24.279 24.279-10.892 24.279-24.279-10.891-24.279-24.279-24.279z"/><path d="M140.675 442.226a1.5 1.5 0 1 1 0-3h23.46c11.937 0 22.604-7.571 26.545-18.839L326.668 31.512C333.537 12.656 351.617 0 371.666 0h50a1.5 1.5 0 1 1 0 3h-50c-18.792 0-35.74 11.863-42.172 29.52L193.512 421.378c-4.361 12.47-16.167 20.848-29.377 20.848z"/></g></svg></g><g transform="translate(266.0 218.0) rotate(0.0 234.5 126.5) scale(0.9994885346517773 0.9995377631688113)"><svg width="469.24" height="253.117" viewBox="0 0 469.24 253.117"><path d="M415.572 253.117H54.517c-10.769 0-20.038-7.68-22.04-18.261L.397 65.314a22.362 22.362 0 0 1 4.768-18.481 22.36 22.36 0 0 1 17.272-8.12h361.055c10.769 0 20.038 7.68 22.04 18.261l32.079 169.542a22.363 22.363 0 0 1-4.767 18.48 22.361 22.361 0 0 1-17.273 8.12zM22.437 41.713a19.372 19.372 0 0 0-14.962 7.034 19.372 19.372 0 0 0-4.13 16.009l32.079 169.542c1.734 9.166 9.763 15.818 19.092 15.818h361.056c5.805 0 11.259-2.564 14.963-7.034s5.209-10.305 4.129-16.009L402.585 57.531c-1.734-9.166-9.764-15.819-19.092-15.819H22.437z" fill="#f0e760"/><path d="M448.303 211.404H87.248c-10.059 0-18.696-7.156-20.566-17.04L34.603 24.822C32.163 11.931 42.049 0 55.169 0h361.055c10.059 0 18.696 7.156 20.566 17.04l32.079 169.543c2.439 12.891-7.446 24.822-20.566 24.822z" fill="#f0e760"/><g fill="#fff"><path d="M145.478 127.149h-42.894l-8.292-42.894h42.894z"/><path d="M118.046 85.755a1.5 1.5 0 0 1-1.127-2.49l36.615-41.68a1.5 1.5 0 0 1 1.127-.51h200.945a1.5 1.5 0 1 1 0 3H155.34l-36.167 41.17c-.297.338-.711.51-1.127.51zm261.966 84.574H179.067a1.5 1.5 0 0 1-.93-.323l-52.729-41.68a1.5 1.5 0 0 1 1.86-2.354l52.32 41.357h200.424a1.5 1.5 0 1 1 0 3z"/><path d="M201.7 64.022h-42.893l-8.292-42.894h42.894zm91.537 0h-42.894l-8.291-42.894h42.893zm91.536 0H341.88l-8.292-42.894h42.894zM226.106 190.276h-42.894l-8.291-42.894h42.893zm91.536 0h-42.893l-8.292-42.894h42.894zm91.537 0h-42.894l-8.291-42.894h42.893z"/></g></svg></g><g transform="translate(327.0 571.0) rotate(0.0 234.5 123.5) scale(0.9992521588320894 1.0014149547336113)"><svg width="469.351" height="246.651" viewBox="0 0 469.351 246.651"><g fill="#bbddfa"><circle cx="5.026" cy="5.026" r="5.026"/><path d="M144.12 8.025a3 3 0 1 1 0-6h104.149a3 3 0 1 1 0 6zm-39.094.001-50-.002a3 3 0 1 1 0-6l50 .002a3 3 0 1 1 0 6z"/><circle cx="11.949" cy="44.459" r="5.026"/><path d="M365.992 47.458a3 3 0 1 1 0-6h100.359a3 3 0 1 1 0 6zm-67.404 0a3 3 0 1 1 0-6h33.702a3 3 0 1 1 0 6zm-186.626.001a3 3 0 1 1 0-6h155.222a2.999 2.999 0 1 1 0 5.999H111.962z"/><circle cx="18.872" cy="83.892" r="5.026"/><path d="M347.226 86.891h-81.574a3 3 0 1 1 0-6h81.574a3 3 0 1 1 0 6zm-109.149 0h-32.391a3 3 0 1 1 0-6h32.391a3 3 0 1 1 0 6zm-69.18 0h-50a3 3 0 1 1 0-6h50a3 3 0 1 1 0 6z"/><circle cx="25.795" cy="123.325" r="5.026"/><circle cx="32.717" cy="162.758" r="5.026"/><path d="M343.526 165.756H166.588a3 3 0 1 1 0-6h176.938a3 3 0 1 1 0 6zm-210.757 0h-50a3 3 0 1 1 0-6h50a3 3 0 1 1 0 6z"/><circle cx="39.64" cy="202.191" r="5.026"/><path d="M454.077 205.19H318.885a3 3 0 0 1 0-6h135.192a3 3 0 0 1 0 6zm-168.51-.001h-63.685a3 3 0 1 1 0-6h63.685a3 3 0 1 1 0 6zm-95.863 0h-50a3 3 0 1 1 0-6h50a3 3 0 1 1 0 6z"/><circle cx="46.563" cy="241.625" r="5.026"/><path d="M401.011 244.632a3 3 0 1 1 0-6l48.982-.005a3 3 0 1 1 0 6zm-204.816.021a3 3 0 1 1 0-6l168.146-.017a3 3 0 1 1 0 6z"/></g></svg></g><g transform="translate(579.0 253.0) rotate(0.0 238.0 42.0) scale(1.024129436190927 1.024102995501262)"><svg width="464.785" height="82.023" viewBox="0 0 464.785 82.023"><path d="M431.835 80.523H51.193c-19.17 0-38.752-13.761-46.445-32.639C-5.111 23.687 8.379 1.5 32.949 1.5h380.642c19.17 0 38.752 13.761 46.445 32.639 9.859 24.196-3.63 46.383-28.201 46.383z" fill="#fff"/><path d="M431.835 82.023H51.193c-19.79 0-39.906-14.12-47.834-33.574C-1.758 35.89-1.015 23.218 5.397 13.68 11.243 4.986 21.285 0 32.949 0h380.642c19.79 0 39.907 14.119 47.834 33.574 5.117 12.559 4.375 25.231-2.038 34.769-5.845 8.694-15.887 13.68-27.552 13.68zM32.949 3C22.144 3 13.243 7.387 7.887 15.354c-5.846 8.695-6.484 20.345-1.749 31.963 7.486 18.372 26.435 31.706 45.055 31.706h380.642c10.805 0 19.706-4.387 25.062-12.354 5.846-8.695 6.484-20.345 1.749-31.963C451.16 16.334 432.211 3 413.591 3H32.949z" fill="#25242e"/><path d="M417.85 50.904H54.503c-3.93 0-8.025-2.327-10.432-5.927-4.369-6.536-1.27-13.858 5.864-13.858h363.347c3.93 0 8.025 2.327 10.432 5.927 4.369 6.536 1.27 13.858-5.864 13.858z" fill="#24968b"/><ellipse cx="318.096" cy="37.883" fill="#fff" rx="20.82" ry="26.214" transform="matrix(.6653346 -.74654529 .74654529 .6653346 78.176 250.153)"/><path d="M323.489 62.744c-13.54 0-27.095-11.001-30.217-24.524-1.572-6.81-.335-13.204 3.484-18.005 3.69-4.639 9.353-7.194 15.946-7.194 13.54 0 27.095 11.001 30.217 24.524 1.572 6.81.335 13.204-3.484 18.004-3.69 4.639-9.353 7.194-15.946 7.194zm-10.787-46.723c-5.659 0-10.489 2.153-13.598 6.062-3.238 4.071-4.271 9.562-2.909 15.462 2.826 12.24 15.07 22.199 27.293 22.199 5.659 0 10.489-2.153 13.598-6.062 3.238-4.07 4.271-9.562 2.908-15.462-2.826-12.241-15.07-22.199-27.293-22.199z" fill="#25242e"/></svg></g><g transform="translate(134.0 428.0) rotate(0.0 105.0 76.0) scale(0.9611687812379853 0.961751399917745)"><svg width="218.484" height="158.045" viewBox="0 0 218.484 158.045"><path d="M189.27 158.045H46.811c-14.17 0-26.296-10.172-28.761-24.127L.453 34.286C-2.706 16.4 11.052 0 29.214 0h142.459c14.17 0 26.296 10.172 28.761 24.127l17.597 99.633c3.159 17.885-10.599 34.286-28.761 34.286z" fill="#56b1f0"/><g fill="#fff"><path d="M80.083 108.925c-.408 0-.822-.1-1.205-.312L29.19 81.211a2.502 2.502 0 0 1-.229-4.236l39.035-27.402a2.5 2.5 0 1 1 2.872 4.093L35.111 78.767l46.181 25.468a2.5 2.5 0 0 1-1.209 4.689zm68.97 0a2.501 2.501 0 0 1-1.438-4.546l35.757-25.101-46.181-25.468a2.5 2.5 0 1 1 2.414-4.378l49.688 27.402a2.502 2.502 0 0 1 .229 4.236l-39.036 27.402a2.486 2.486 0 0 1-1.434.454zm-57.203 8.43a2.501 2.501 0 0 1-2.247-3.592l34.78-71.664a2.5 2.5 0 0 1 4.498 2.184L94.1 115.947a2.5 2.5 0 0 1-2.251 1.409z"/></g></svg></g></svg>