<svg fill="#FFFFFF" xmlns="http://www.w3.org/2000/svg"  viewBox="0 0 50 50" width="50px" height="50px"><path d="M 30 2 C 28.346 2 27 3.346 27 5 L 27 7 L 50 7 L 50 5 C 50 3.346 48.654 2 47 2 L 30 2 z M 8 8 C 5.8026661 8 4 9.8026661 4 12 L 4 34 C 4 34.730688 4.2136476 35.40837 4.5605469 36 L 2 36 C 1.448 36 1 36.448 1 37 C 1 39.757 3.243 42 6 42 L 44 42 C 46.757 42 49 39.757 49 37 C 49 36.448 48.552 36 48 36 L 45.439453 36 C 45.786352 35.40837 46 34.730688 46 34 L 46 21 L 44 21 L 44 34 C 44 35.116666 43.116666 36 42 36 L 8 36 C 6.8833339 36 6 35.116666 6 34 L 6 12 C 6 10.883334 6.8833339 10 8 10 L 25 10 L 25 8 L 8 8 z M 27 10 L 27 16 C 27 17.654 28.346 19 30 19 L 47 19 C 48.654 19 50 17.654 50 16 L 50 10 L 27 10 z"/></svg>