<svg height="467.465" viewBox="0 0 639.05 467.465" width="639.05" xmlns="http://www.w3.org/2000/svg"><path d="m636.05 3-151.291 64.524 33.276 24.986-167.804 225.906-120.099-176.925-227.132 269.484 63.465 53.49 156.526-185.712 124.195 182.956 237.221-319.361 31.877 23.936z" fill="#fff"/><path d="m66.463 467.465a2.992 2.992 0 0 1 -1.932-.706l-63.465-53.491a3 3 0 0 1 -.36-4.227l227.132-269.484a3 3 0 0 1 4.776.249l117.728 173.43 163.505-220.118-30.89-23.194a3 3 0 0 1 .625-5.16l151.291-64.524a3 3 0 0 1 4.155 3.12l-19.765 163.284a3 3 0 0 1 -4.781 2.039l-29.465-22.125-235.423 316.942a2.871 2.871 0 0 1 -2.472 1.21 3 3 0 0 1 -2.419-1.315l-121.97-179.681-153.974 182.686a3 3 0 0 1 -2.296 1.065zm-59.235-56.851 58.877 49.623 154.595-183.418a3.033 3.033 0 0 1 2.451-1.062 3 3 0 0 1 2.326 1.311l121.823 179.461 234.7-315.97a3 3 0 0 1 4.21-.61l27.723 20.816 18.514-152.965-141.732 60.445 29.121 21.866a3 3 0 0 1 .606 4.189l-167.8 225.9a2.893 2.893 0 0 1 -2.472 1.21 3 3 0 0 1 -2.419-1.315l-117.877-173.643z" fill="#222433"/></svg>