<svg xmlns="http://www.w3.org/2000/svg" viewBox="0 0 3000 3000" width="3000" height="3000"><g transform="translate(310.0 531.0) rotate(0.0 1191.5 1069.5) scale(1.000839983200336 1.0013707403121244)"><svg width="2381" height="2136.072" viewBox="0 0 2381 2136.072"><path d="M762.195 2136.083c-21.549 0-41.677-4.23-60.255-12.696-48.461-22.083-83.862-71.508-105.218-146.903-20.553-72.56-27.321-166.067-20.114-277.927 7.201-111.779 27.994-236.28 61.799-370.044 34.993-138.466 82.473-280.853 141.12-423.205l1.387.571-1.387-.571c92.349-224.16 203.971-427.538 322.799-588.148 57.228-77.35 114.454-142.394 170.089-193.325 56.333-51.57 109.864-87.582 159.104-107.034 53.005-20.938 100.143-22.322 140.105-4.113 48.461 22.082 83.862 71.508 105.218 146.902 20.553 72.56 27.32 166.067 20.113 277.927-7.201 111.779-27.994 236.28-61.799 370.044-34.993 138.466-82.473 280.853-141.12 423.206-92.349 224.159-203.971 427.537-322.799 588.147-57.228 77.351-114.454 142.395-170.089 193.326-56.333 51.569-109.863 87.581-159.104 107.033-28.362 11.204-55.047 16.809-79.849 16.81zM1511.362 2.995c-24.428 0-50.739 5.533-78.741 16.595-48.899 19.317-102.119 55.135-158.181 106.457-55.494 50.802-112.59 115.701-169.704 192.896C986.053 479.358 874.557 682.516 782.3 906.45c-239.126 580.432-274.617 1125.122-79.116 1214.206 39.191 17.858 85.54 16.455 137.758-4.174 48.899-19.317 102.119-55.134 158.181-106.456 55.494-50.803 112.59-115.702 169.703-192.897 118.684-160.415 230.181-363.571 322.437-587.506C1730.389 649.19 1765.88 104.499 1570.38 15.417c-18.176-8.282-37.893-12.422-59.018-12.422z" fill="#f4ba37"/><path d="M1167.339 1386.147c-4.684 9.736-15.002 22.523-32.373 38.994-146.862 139.265-306.991 265.567-510.217 293.723-292.457 40.514-446.915-29.119-446.915-29.119l54.44-129.137s69.633 35.525 127.871 39.247c23.701 1.52 41.362-1.405 52.111-8.685.012 0 .025 0 .038-.012 16.205-10.964 16.674-31.816-1.507-62.201-22.459-37.525-49.958-72.228-78.786-107.031-94.688-114.325-190.983-210.785-182.02-431.039 8.862-217.76 268.402-524.144 568.455-611.501 98.486-28.676 190.692-36.867 268.478-35.576 97.232 1.62 171.917 18.054 208.075 27.815.025.013.063.025.089.038-116.046-11.585-266.212 15.154-452.587 101.41C436.108 614.87 329.063 833.644 309.503 983.29c-29.119 222.824 242.271 474.768 318.538 522.676 113.185 71.101 296.47-95.827 296.47-95.827s125.617-43.692 197.275-50.212a.622.622 0 0 0 .139-.025c3.824-.342 7.495-.582 10.977-.696 28.284-1.001 44.616 5.798 34.437 26.941zm251.427-944.215-88.826 8.356s-42.653-45.514-134.859-78.622c.101 0 .215.013.317.025 95.294 17.827 214.011 63.088 223.368 70.241z" fill="#667ac4"/><path d="M412.295 1591.161c16.206-10.964 16.674-31.816-1.507-62.201-22.46-37.526-49.958-72.228-78.786-107.032l-.975-11.977 15.193 10.128s70.899 88.623 79.761 120.275c8.863 31.652-5.064 45.579-13.686 50.807zm-214.202 97.321c49.376 20.257 218.635 65.018 446.413 22.131 151.162-28.461 306.886-113.287 428.26-238.41 22.227-22.914 17.891-5.28 17.891-5.28-94.954 115.21-264.604 221.558-444.383 255.742-198.739 37.788-400.071 7.596-469.704-31.651-10.168-5.731 21.523-2.532 21.523-2.532zm15.192-871.04s70.899-163.32 244.347-289.925c116.595-85.106 274.621-171.706 520.346-173.449 178.513-1.266 255.742 31.651 328.945 88.516l12.242-4.498c-37.335-29.577-120.963-96.985-343.26-95.66-223.331 1.332-406.859 83.807-527.378 176.426-132.081 101.505-213.405 215.031-249.011 298.59s13.769 0 13.769 0z" fill="#3a5082"/><path d="M1376.31 1314.193c-81.625-18.859-172.701 73.645-203.422 206.614-30.587 132.385-10.403 253.52 90.836 274.62l-2.393 2.154 20.572.593c6.567.615 12.952.794 19.156.551l4.234.122-.251-.331c85.852-5.92 136.638-93.424 163.437-209.414 30.721-132.969-10.544-256.05-92.169-274.909z" fill="#efecdf"/><path d="M1431.766 1587.841c-3.748 16.193-7.951 31.841-12.673 46.781-33.93 107.715-93.751 179.057-190.755 159.826-102.398-20.307-122.883-141.936-92.169-274.91a397.857 397.857 0 0 1 13.509-45.844c38.867-107.652 118.059-177.373 189.92-160.763 81.622 18.852 122.882 141.937 92.168 274.91z" fill="#dbd6c1"/><path d="M1338.511 1568.417c16.686-72.22 5.573-136.458-24.822-143.481s-68.562 45.83-85.248 118.049-12.446 134.102 24.822 143.481c36.941 9.297 68.562-45.829 85.248-118.049z" fill="#efecdf"/><path d="M1419.093 1634.622c-33.93 107.715-93.751 179.057-190.755 159.826-102.398-20.307-122.883-141.936-92.169-274.91a397.857 397.857 0 0 1 13.509-45.844l27.043 4.659-16.927 23.434s-45.109 146.216 9.331 217.115 173.904 52.908 249.639-83.698c.113-.19.215-.393.329-.582z" fill="#c6bd95"/><path d="m2254.557 1455.552-63.328 8.685-397.919 54.592s-1.291 3.457-3.558 8.926c-8.597 20.776-31.183 70.518-49.616 68.303-23.498-2.823-98.65-92.877-135.784-139.075-12.889-16.028-21.206-26.777-21.206-26.777l-13.091.279-31.753.671-436.343 9.179-120.186 2.532-15.345-8.444-36.462-20.054-226.724-124.693-120.275-283.595 120.275-316.512 251.728-69.544 277.517-134.1c.025-.013.038-.025.038-.025l15.851-7.66 944.94 917.822z" fill="#667ac4"/><g fill="#4a63a8"><path d="m1822.215 1457.121-40.324 60.1s-3.798 42.159-46.958 76.937c-46.958-33.575 29.233-119.603 7.71-134.796-20.194-14.255-125.377-3.735-138.29-2.38-12.889-16.028-21.206-26.777-21.206-26.777l-13.091.279.405-9.103 209.088 2.925z"/><path d="M1789.753 1527.754c1.133-2.732 4.421-16.789 9.385-30.101l-11.828 20.214zM1248.379 478.238l-15.851 7.66s-.013.012-.038.025c-1.38.861-45.628 29.321-48.147 135.91-2.557 108.285 22.181 524.018 71.215 639.621 43.171 101.791-81.369 159.927-256.084 104.221-231.534-73.823-253.21-274.734-253.21-292.457 0-17.725 202.568-93.688 284.861-139.265 82.293-45.578 76.638-101.318 76.638-101.318l-24.805-13.622-450.18 135.477-15.651 156.709 191.389 239.229 122.554 49.404-1.102 14.535-1.393 18.408 37.855 1.646 135.531 5.912 262.135 11.433 174.208-20.612 179.183-21.206 94.789 20.295v44.325c2.008-1.688 4.122-2.627 6.33-2.545 307.65 11.394 372.623-7.786 372.623-7.786l2.089-68.177z"/><path d="m1799.138 1497.653 13.138-22.453v-.632c-5.126 4.309-9.566 13.504-13.138 23.085z"/></g><path d="M2358.12 1430.61c-32.778 62.441-119.161 52.769-179.931 43.906-30.715-4.481-606.437-125.339-698.858-146.861-76.748-17.876-126.44-32.258-161.383-59.821-7.128-5.634-13.648-11.799-19.661-18.674-35.449-40.514-59.504-148.128-83.559-446.915-9.888-122.857-7.229-199.858 1.835-250.26 12.977-72.177 61.467-139.683 206.164-120.793l843.061 900.768z" fill="#dbd6c1"/><path d="M2358.12 1430.61c-32.778 62.441-119.161 52.769-179.931 43.906-30.715-4.481-606.437-125.339-698.858-146.861-76.748-17.876-126.44-32.258-161.383-59.821l33.057-42.906 20.687-64.353 894.096 171.385z" fill="#c6bd95"/><path d="M2361.766 1425.255c-32.879 54.883-141.797 26.473-236.751 6.216-69.139-14.749-327.223-69.733-470.995-101.017-.012-.013-.038-.013-.051-.013-53.655-11.673-91.371-20.029-97.41-21.776-74.697-21.523-212.696-35.449-241.815-148.128-27.853-107.766-89.143-559.365-41.78-665.941 25.321-56.972 72.19-77.38 188.641-58.238 184.843 30.385 517.813 134.201 691.262 200.036 53.528 20.32 159.522 60.77 187.375 153.192 3.064 10.167 6.216 24.853 9.343 43.046 0 0 .013.051.025.165 25.513 148.645 49.366 530.346 12.156 592.458z" fill="#efecdf"/><path d="m2349.77 833.719-667.91 502.78c-9.67-2.1-18.97-4.12-27.84-6.05-.01-.011-.04-.011-.05-.011-53.66-11.67-91.37-20.029-97.41-21.77-13.3-3.83-28.61-7.42-44.95-11.37l739.86-614.39c38.49 24.43 74.25 58.49 88.77 106.68 3.07 10.16 6.22 24.85 9.35 43.04 0 0 .01.05.02.17.05.301.1.611.16.921zm31.18 403.36-257.73 194.01c-50.03-10.68-189.23-40.34-317.23-67.83l553.61-459.72c11.36 95.06 20.56 225.71 21.35 333.54z" fill="#f7f5ed"/><path d="M1798.033 1518.183c-1.887 45.882-25.903 72.228-45.933 77.482-10.647 2.798-20.168-.367-24.624-9.736-12.66-26.587 15.193-56.972 37.981-73.431 22.789-16.459 60.631-49.818 31.651-70.899-55.706-40.513-320.31 53.174-550.731 59.504s-420.682-21.396-544.4-119.008c-113.944-89.889-193.705-248.145-163.32-446.915C571.03 723.447 770.344 587.017 955.01 619.998c-364.444 154.394-342.922 601.309-64.391 731.712 229.762 107.576 603.069 65.189 741.904 51.908 145.595-13.927 200.036 8.862 203.834 48.11 3.178 32.867-38.324 66.455-38.324 66.455z" fill="#dbd6c1"/><path d="M1798.072 1518.158c-.026.013-.038.025-.038.025s-46.527 36.133-49.059 58.922c-1.193 10.741 5.064 16.459 11.394 15.269-13.749 7.292-27.296 5.305-32.892-6.445-12.66-26.587 15.193-56.972 37.981-73.431 22.789-16.459 60.631-49.818 31.651-70.899-55.706-40.513-320.31 53.174-550.731 59.504s-420.682-21.396-544.4-119.008c-113.944-89.889-193.705-248.145-163.32-446.915 11.875-77.71 46.236-145.266 94.118-198.035a381.68 381.68 0 0 1 70.152-60.58c-90.865 85.205-114.92 216.874-112.388 309.296 2.396 87.471-58.238 500.089 539.286 474.59 108.469-4.629 241.993-17.497 352.012-36.538 62.745-10.863 114.603-16.763 146.178-19.864 1.038-.101 2.051-.19 3.038-.291.494-.051.988-.089 1.469-.14 145.595-13.927 200.036 8.862 203.834 48.11 3.127 32.297-36.906 65.303-38.285 66.43z" fill="#c6bd95"/><path d="m538.036 1096.412 52.354-19.489.392 8.34-51.135 20.886zm600.454 413.602 18.329 2.489 2.974-10.716-19-.359z" fill="#aaa077"/><path d="M289.877 1257.49c-1.6-.355-3.193-.678-4.781-.978l.002-.005-.303-.048c-2.59-.483-5.167-.896-7.726-1.229l-26.831-4.27 4.108 3.273c-77.414 3.462-137.929 78.928-167.892 209.87-28.78 125.771 6.512 241.636 79.214 270.733l-.606 2.399 20.285 3.282a173.116 173.116 0 0 0 15.531 2.514l.18.029.007-.011c103.854 11.693 152.252-86.317 180.979-210.652 30.723-132.966 4.043-253.498-92.167-274.907z" fill="#c6bd95"/><path d="M359.258 1528.603c-30.727 132.973-83.939 235.839-203.428 206.619-22.65-5.546-42.197-19.004-57.947-38.399a141.198 141.198 0 0 1-6.204-8.229c-7.229-10.306-13.521-21.991-18.788-34.816-21.08-51.25-25.878-120.705-9.23-193.465 34.411-150.381 109.108-227.61 203.429-206.619 96.207 21.408 122.883 141.936 92.168 274.909z" fill="#efecdf"/><path d="M298.172 1520.411c-25.84 111.843-84.42 191.237-172.043 173.563-36.045-7.267-58.441-33.006-69.481-69.734-5.292-17.611-7.976-37.741-8.292-59.58-.012-.823-.025-1.646-.025-2.481-.19-29.79 3.937-62.644 11.762-96.524 25.84-111.829 89.952-190.363 159.61-176.677 49.022 9.634 76.938 51.478 85.573 107.842v.012c5.62 36.678 3.088 79.495-7.104 123.579z" fill="#dbd6c1"/><path d="M200.686 1593.88s-31.74 66.784-98.84 55.39c-18.484-3.14-33.36-12.749-45.198-25.03-5.292-17.611-7.976-37.741-8.292-59.58-.012-.823-.025-1.646-.025-2.481l45.679 28.98z" fill="#c6bd95"/><path d="M238.478 1502.535c-20.218 87.535-65.277 148.292-136.657 135.366-41.868-7.584-61.555-46.122-64.214-96.701-.962-18.307.304-38.197 3.571-58.771a371.57 371.57 0 0 1 4.988-25.637c20.219-87.522 73.14-146.241 128.883-135.847 69.886 13.04 83.66 94.067 63.429 181.59z" fill="#efecdf"/><path d="M150.55 1505.029c-7.001 25.397-36.059 52.2-62.631 53.086-37.981 1.266-50.313-16.914-50.313-16.914-.962-18.307.304-38.197 3.571-58.771 52.908 2.329 113.349 8.153 109.373 22.599z" fill="#dbd6c1"/><path d="M1117.128 792.218c-.469 26.904-9.166 52.3-24.042 73.317a130.671 130.671 0 0 1-22.523 24.485 130.61 130.61 0 0 1-38.627 22.536L90.527 1262.998c-67.151 6.419-98.802-165.764 48.059-230.332l833.059-358.292c.582-.088 1.165-.177 1.76-.253 75.293-10.28 145.014 44.996 143.723 118.097z" fill="#c6bd95"/><path d="M1117.128 792.218c-.469 26.904-9.166 52.3-24.042 73.317a130.671 130.671 0 0 1-22.523 24.485l-44.501-30.765-72.165-162.054 19.51-23.08c75.291-10.28 145.012 44.996 143.721 118.097z" fill="#dbd6c1"/><path d="M1082.944 777.026c-.469 26.904-9.167 52.3-24.043 73.317a130.57 130.57 0 0 1-18.028 20.536c-.013 0-.013.012-.025.012a130.648 130.648 0 0 1-43.096 26.473l-821.235 305.7-66.037 24.587-54.136 20.155c-67.151 6.419-98.802-165.764 48.059-230.332l46.046-18.573 34.449-13.888 107.171-43.235 649.546-261.971c68.329-27.562 142.633 23.547 141.329 97.219z" fill="#efecdf"/><path d="m150.45 998.901-39.97 228.75-54.136 20.155c-67.151 6.419-98.802-165.764 48.059-230.332zm890.398-128.01a130.648 130.648 0 0 1-43.096 26.473l-821.235 305.7 8.381-218.051 107.171-43.235s-25.721 104.969 25.118 139.708c65.721 44.906 702.543-189.313 723.661-210.595z" fill="#dbd6c1"/><path d="m595.096 947.664-59.042 21.472c-5.709 2.076-12.021-.869-14.097-6.578l-2-5.501c-2.076-5.709.869-12.021 6.578-14.097l59.042-21.472c5.709-2.076 12.021.869 14.097 6.578l2 5.501c2.076 5.709-.869 12.021-6.578 14.097zm107.951-38.735-59.042 21.472c-5.709 2.076-12.021-.869-14.097-6.578l-2-5.501c-2.076-5.709.869-12.021 6.578-14.097l59.042-21.472c5.709-2.076 12.021.869 14.097 6.578l2 5.501c2.076 5.709-.869 12.02-6.578 14.097zm215.46-71.39 1.886-62.797c.182-6.072 5.253-10.847 11.325-10.665l5.85.176c6.072.182 10.847 5.253 10.665 11.325l-1.886 62.797c-.182 6.072-5.253 10.847-11.325 10.665l-5.85-.176c-6.073-.182-10.848-5.252-10.665-11.325z" fill="#ffce55"/><path d="m293.222 895.389-137.506 595.106c-2.367 10.268-6.988 19.434-13.23 27.106-15.091 18.598-39.652 28.359-64.556 23.586l-.012.013-23.283-4.153-4.609-8.242a67.064 67.064 0 0 1-19.864-24.283c-6.432-13.255-8.533-28.714-4.95-44.185l137.493-595.106c8.331-36.032 44.286-58.504 80.331-50.173s58.504 44.286 50.186 80.331z" fill="#e5a32c"/><path d="m213.301 809.884 25.3 4.301-8.857 18.449-16.459-15.192-.242-7.558" fill="#f4ba37"/><path d="M142.486 1517.601c-15.091 18.598-39.652 28.359-64.556 23.586l-.012.013-23.283-4.153-4.609-8.242a67.064 67.064 0 0 1-19.864-24.283l67.86-22.093 30.006 20.713z" fill="#e5a32c"/><path d="M273.434 876.461c0 4.988-.57 10.065-1.735 15.13L137.688 1471.58l-3.495 15.117c-5.799 25.094-25.004 43.616-48.312 49.731a66.68 66.68 0 0 1-32.018.443c-36.045-8.33-58.504-44.286-50.174-80.33l137.43-594.777c.013-.051.013-.101.025-.139l.038-.19c8.331-36.032 44.286-58.504 80.331-50.173 30.98 7.151 51.921 34.713 51.921 65.199z" fill="#ffce55"/><path d="M85.881 1536.427a66.68 66.68 0 0 1-32.018.443c-36.045-8.33-58.504-44.286-50.174-80.33l137.43-594.777c-2.545 13.8-79.381 434.735-93.713 529.233-14.471 95.409-20.206 132.606 38.475 145.431zm616.68 587.094c-.208 0-.419-.043-.621-.135-48.461-22.082-83.862-71.508-105.218-146.903-20.553-72.56-27.32-166.067-20.114-277.927 7.202-111.779 27.994-236.28 61.799-370.044 34.994-138.465 82.473-280.853 141.12-423.205 92.349-224.16 203.971-427.538 322.799-588.148 57.228-77.35 114.454-142.394 170.089-193.325 56.333-51.57 109.864-87.582 159.104-107.034 53.004-20.939 100.142-22.323 140.104-4.113a1.5 1.5 0 0 1-1.244 2.73c-39.192-17.86-85.541-16.455-137.758 4.173-48.899 19.317-102.119 55.135-158.181 106.457-55.494 50.802-112.59 115.701-169.703 192.896C986.053 479.358 874.557 682.516 782.3 906.45c-239.126 580.432-274.618 1125.122-79.117 1214.206a1.5 1.5 0 0 1-.622 2.865z" fill="#f4ba37"/><path d="m1361.811 99.645.017-.013-2.765-10.041-2.598 1.294-31.434-43.976c-4.749-6.644-14.667-4.766-16.915 3.204l-12.527 44.427-2.953-1.242-1.024 2.713 2.45 9.004c.059.243.12.484.196.72l.044.162.012-.008c1.311 3.871 4.813 6.779 9.127 6.749l49.12-.348c6.567-.049 10.745-6.614 9.25-12.645z" fill="#f4ba37"/><path d="m1291.744 90.743 13.966-49.528c2.247-7.969 12.166-9.847 16.915-3.203l35.154 49.18c4.749 6.644.277 16.142-7.626 16.198l-49.12.348c-6.459.046-11.126-6.482-9.289-12.995z" fill="#ffce55"/><path d="M1120.988 1889.818h.012l-3.158-10.323-3.372.465.529 4.736a9.123 9.123 0 0 0-4.528-.143l-48.077 10.591a9.385 9.385 0 0 0-2.891 1.173l-4.02-2.432-3.946 2.735 3.544 11.146c.016.061.04.119.057.179l.27.851.013-.013a10.058 10.058 0 0 0 2.555 3.828l43.734 40.867c5.908 5.521 15.275 1.609 15.974-6.67l4.344-51.457a10.46 10.46 0 0 0-1.04-5.533z" fill="#f4ba37"/><path d="m1118.416 1883.958-4.344 51.457c-.699 8.279-10.066 12.19-15.974 6.669l-43.734-40.867c-5.908-5.521-3.318-15.764 4.418-17.468l48.078-10.591c6.322-1.391 12.127 4.034 11.556 10.8z" fill="#ffce55"/></svg></g></svg>